<?xml version="1.0" standalone="no"?>
<!DOCTYPE svg PUBLIC "-//W3C//DTD SVG 20010904//EN"
 "http://www.w3.org/TR/2001/REC-SVG-20010904/DTD/svg10.dtd">
<svg version="1.0" xmlns="http://www.w3.org/2000/svg"
 width="512.000000pt" height="512.000000pt" viewBox="0 0 512.000000 512.000000"
 preserveAspectRatio="xMidYMid meet">
<metadata>
Created by potrace 1.14, written by Peter Selinger 2001-2017
</metadata>
<g transform="translate(0.000000,512.000000) scale(0.100000,-0.100000)"
fill="#000000" stroke="none">
<path d="M0 2560 l0 -2560 2560 0 2560 0 0 2560 0 2560 -2560 0 -2560 0 0
-2560z m2088 15 l-3 -745 -160 -2 -160 -1 -3 734 c-1 404 0 740 3 747 3 9 46
12 165 12 l160 0 -2 -745z m1262 605 l0 -140 -188 0 -189 0 -6 -122 c-4 -66
-7 -340 -7 -607 l0 -486 -161 2 c-112 1 -164 5 -169 13 -4 6 -5 73 -2 148 2
76 1 343 -3 595 l-7 457 -184 0 -184 0 0 133 c0 74 3 137 7 140 3 4 251 7 550
7 l543 0 0 -140z"/>
</g>
</svg>
